<svg xmlns="http://www.w3.org/2000/svg" xmlns:xlink="http://www.w3.org/1999/xlink" width="74" height="233" viewBox="0 0 74 233">
  <defs>
    <clipPath id="clip-path">
      <rect id="Rectangle_27483" data-name="Rectangle 27483" width="74" height="233" transform="translate(0 1092)" fill="#fff" stroke="#707070" stroke-width="1"/>
    </clipPath>
    <clipPath id="clip-path-2">
      <rect id="Rectangle_27461" data-name="Rectangle 27461" width="168" height="252" transform="translate(-62 1148)" fill="#fff" stroke="#707070" stroke-width="1"/>
    </clipPath>
  </defs>
  <g id="Mask_Group_37" data-name="Mask Group 37" transform="translate(0 -1092)" clip-path="url(#clip-path)">
    <g id="Mask_Group_24" data-name="Mask Group 24" transform="translate(-10 -62)" clip-path="url(#clip-path-2)">
      <g id="Group_176588" data-name="Group 176588" transform="translate(84 -617)">
        <g id="Group_176578" data-name="Group 176578" transform="translate(-146 -889)" opacity="0.25">
          <g id="Group_176570" data-name="Group 176570" transform="translate(-1404 2407)" opacity="0.38">
            <circle id="Ellipse_6416" data-name="Ellipse 6416" cx="5" cy="5" r="5" transform="translate(1542 257)" fill="#cdaa6a"/>
            <circle id="Ellipse_6417" data-name="Ellipse 6417" cx="5" cy="5" r="5" transform="translate(1542 279)" fill="#cdaa6a"/>
            <circle id="Ellipse_6418" data-name="Ellipse 6418" cx="5" cy="5" r="5" transform="translate(1542 301)" fill="#cdaa6a"/>
            <circle id="Ellipse_6419" data-name="Ellipse 6419" cx="5" cy="5" r="5" transform="translate(1542 323)" fill="#cdaa6a"/>
            <circle id="Ellipse_6420" data-name="Ellipse 6420" cx="5" cy="5" r="5" transform="translate(1542 367)" fill="#cdaa6a"/>
            <circle id="Ellipse_6421" data-name="Ellipse 6421" cx="5" cy="5" r="5" transform="translate(1542 345)" fill="#cdaa6a"/>
            <circle id="Ellipse_6422" data-name="Ellipse 6422" cx="5" cy="5" r="5" transform="translate(1524 257)" fill="#cdaa6a"/>
            <circle id="Ellipse_6423" data-name="Ellipse 6423" cx="5" cy="5" r="5" transform="translate(1524 279)" fill="#cdaa6a"/>
            <circle id="Ellipse_6424" data-name="Ellipse 6424" cx="5" cy="5" r="5" transform="translate(1524 301)" fill="#cdaa6a"/>
            <circle id="Ellipse_6425" data-name="Ellipse 6425" cx="5" cy="5" r="5" transform="translate(1524 323)" fill="#cdaa6a"/>
            <circle id="Ellipse_6426" data-name="Ellipse 6426" cx="5" cy="5" r="5" transform="translate(1524 367)" fill="#cdaa6a"/>
            <circle id="Ellipse_6427" data-name="Ellipse 6427" cx="5" cy="5" r="5" transform="translate(1524 345)" fill="#cdaa6a"/>
          </g>
          <g id="Group_176571" data-name="Group 176571" transform="translate(-1444 2407)" opacity="0.38">
            <circle id="Ellipse_6428" data-name="Ellipse 6428" cx="5" cy="5" r="5" transform="translate(1542 257)" fill="#cdaa6a"/>
            <circle id="Ellipse_6429" data-name="Ellipse 6429" cx="5" cy="5" r="5" transform="translate(1542 279)" fill="#cdaa6a"/>
            <circle id="Ellipse_6430" data-name="Ellipse 6430" cx="5" cy="5" r="5" transform="translate(1542 301)" fill="#cdaa6a"/>
            <circle id="Ellipse_6431" data-name="Ellipse 6431" cx="5" cy="5" r="5" transform="translate(1542 323)" fill="#cdaa6a"/>
            <circle id="Ellipse_6432" data-name="Ellipse 6432" cx="5" cy="5" r="5" transform="translate(1542 367)" fill="#cdaa6a"/>
            <circle id="Ellipse_6433" data-name="Ellipse 6433" cx="5" cy="5" r="5" transform="translate(1542 345)" fill="#cdaa6a"/>
            <circle id="Ellipse_6434" data-name="Ellipse 6434" cx="5" cy="5" r="5" transform="translate(1524 257)" fill="#cdaa6a"/>
            <circle id="Ellipse_6435" data-name="Ellipse 6435" cx="5" cy="5" r="5" transform="translate(1524 279)" fill="#cdaa6a"/>
            <circle id="Ellipse_6436" data-name="Ellipse 6436" cx="5" cy="5" r="5" transform="translate(1524 301)" fill="#cdaa6a"/>
            <circle id="Ellipse_6437" data-name="Ellipse 6437" cx="5" cy="5" r="5" transform="translate(1524 323)" fill="#cdaa6a"/>
            <circle id="Ellipse_6438" data-name="Ellipse 6438" cx="5" cy="5" r="5" transform="translate(1524 367)" fill="#cdaa6a"/>
            <circle id="Ellipse_6439" data-name="Ellipse 6439" cx="5" cy="5" r="5" transform="translate(1524 345)" fill="#cdaa6a"/>
          </g>
          <g id="Group_176572" data-name="Group 176572" transform="translate(-1484 2407)" opacity="0.38">
            <circle id="Ellipse_6440" data-name="Ellipse 6440" cx="5" cy="5" r="5" transform="translate(1542 257)" fill="#cdaa6a"/>
            <circle id="Ellipse_6441" data-name="Ellipse 6441" cx="5" cy="5" r="5" transform="translate(1542 279)" fill="#cdaa6a"/>
            <circle id="Ellipse_6442" data-name="Ellipse 6442" cx="5" cy="5" r="5" transform="translate(1542 301)" fill="#cdaa6a"/>
            <circle id="Ellipse_6443" data-name="Ellipse 6443" cx="5" cy="5" r="5" transform="translate(1542 323)" fill="#cdaa6a"/>
            <circle id="Ellipse_6444" data-name="Ellipse 6444" cx="5" cy="5" r="5" transform="translate(1542 367)" fill="#cdaa6a"/>
            <circle id="Ellipse_6445" data-name="Ellipse 6445" cx="5" cy="5" r="5" transform="translate(1542 345)" fill="#cdaa6a"/>
            <circle id="Ellipse_6446" data-name="Ellipse 6446" cx="5" cy="5" r="5" transform="translate(1524 257)" fill="#cdaa6a"/>
            <circle id="Ellipse_6447" data-name="Ellipse 6447" cx="5" cy="5" r="5" transform="translate(1524 279)" fill="#cdaa6a"/>
            <circle id="Ellipse_6448" data-name="Ellipse 6448" cx="5" cy="5" r="5" transform="translate(1524 301)" fill="#cdaa6a"/>
            <circle id="Ellipse_6449" data-name="Ellipse 6449" cx="5" cy="5" r="5" transform="translate(1524 323)" fill="#cdaa6a"/>
            <circle id="Ellipse_6450" data-name="Ellipse 6450" cx="5" cy="5" r="5" transform="translate(1524 367)" fill="#cdaa6a"/>
            <circle id="Ellipse_6451" data-name="Ellipse 6451" cx="5" cy="5" r="5" transform="translate(1524 345)" fill="#cdaa6a"/>
          </g>
          <g id="Group_176573" data-name="Group 176573" transform="translate(-1524 2407)" opacity="0.38">
            <circle id="Ellipse_6452" data-name="Ellipse 6452" cx="5" cy="5" r="5" transform="translate(1542 257)" fill="#cdaa6a"/>
            <circle id="Ellipse_6453" data-name="Ellipse 6453" cx="5" cy="5" r="5" transform="translate(1542 279)" fill="#cdaa6a"/>
            <circle id="Ellipse_6454" data-name="Ellipse 6454" cx="5" cy="5" r="5" transform="translate(1542 301)" fill="#cdaa6a"/>
            <circle id="Ellipse_6455" data-name="Ellipse 6455" cx="5" cy="5" r="5" transform="translate(1542 323)" fill="#cdaa6a"/>
            <circle id="Ellipse_6456" data-name="Ellipse 6456" cx="5" cy="5" r="5" transform="translate(1542 367)" fill="#cdaa6a"/>
            <circle id="Ellipse_6457" data-name="Ellipse 6457" cx="5" cy="5" r="5" transform="translate(1542 345)" fill="#cdaa6a"/>
            <circle id="Ellipse_6458" data-name="Ellipse 6458" cx="5" cy="5" r="5" transform="translate(1524 257)" fill="#cdaa6a"/>
            <circle id="Ellipse_6459" data-name="Ellipse 6459" cx="5" cy="5" r="5" transform="translate(1524 279)" fill="#cdaa6a"/>
            <circle id="Ellipse_6460" data-name="Ellipse 6460" cx="5" cy="5" r="5" transform="translate(1524 301)" fill="#cdaa6a"/>
            <circle id="Ellipse_6461" data-name="Ellipse 6461" cx="5" cy="5" r="5" transform="translate(1524 323)" fill="#cdaa6a"/>
            <circle id="Ellipse_6462" data-name="Ellipse 6462" cx="5" cy="5" r="5" transform="translate(1524 367)" fill="#cdaa6a"/>
            <circle id="Ellipse_6463" data-name="Ellipse 6463" cx="5" cy="5" r="5" transform="translate(1524 345)" fill="#cdaa6a"/>
          </g>
          <g id="Group_176574" data-name="Group 176574" transform="translate(-1404 2539)" opacity="0.38">
            <circle id="Ellipse_6464" data-name="Ellipse 6464" cx="5" cy="5" r="5" transform="translate(1542 257)" fill="#cdaa6a"/>
            <circle id="Ellipse_6465" data-name="Ellipse 6465" cx="5" cy="5" r="5" transform="translate(1542 279)" fill="#cdaa6a"/>
            <circle id="Ellipse_6466" data-name="Ellipse 6466" cx="5" cy="5" r="5" transform="translate(1542 301)" fill="#cdaa6a"/>
            <circle id="Ellipse_6467" data-name="Ellipse 6467" cx="5" cy="5" r="5" transform="translate(1542 323)" fill="#cdaa6a"/>
            <circle id="Ellipse_6468" data-name="Ellipse 6468" cx="5" cy="5" r="5" transform="translate(1542 367)" fill="#cdaa6a"/>
            <circle id="Ellipse_6469" data-name="Ellipse 6469" cx="5" cy="5" r="5" transform="translate(1542 345)" fill="#cdaa6a"/>
            <circle id="Ellipse_6470" data-name="Ellipse 6470" cx="5" cy="5" r="5" transform="translate(1524 257)" fill="#cdaa6a"/>
            <circle id="Ellipse_6471" data-name="Ellipse 6471" cx="5" cy="5" r="5" transform="translate(1524 279)" fill="#cdaa6a"/>
            <circle id="Ellipse_6472" data-name="Ellipse 6472" cx="5" cy="5" r="5" transform="translate(1524 301)" fill="#cdaa6a"/>
            <circle id="Ellipse_6473" data-name="Ellipse 6473" cx="5" cy="5" r="5" transform="translate(1524 323)" fill="#cdaa6a"/>
            <circle id="Ellipse_6474" data-name="Ellipse 6474" cx="5" cy="5" r="5" transform="translate(1524 367)" fill="#cdaa6a"/>
            <circle id="Ellipse_6475" data-name="Ellipse 6475" cx="5" cy="5" r="5" transform="translate(1524 345)" fill="#cdaa6a"/>
          </g>
          <g id="Group_176575" data-name="Group 176575" transform="translate(-1444 2539)" opacity="0.38">
            <circle id="Ellipse_6476" data-name="Ellipse 6476" cx="5" cy="5" r="5" transform="translate(1542 257)" fill="#cdaa6a"/>
            <circle id="Ellipse_6477" data-name="Ellipse 6477" cx="5" cy="5" r="5" transform="translate(1542 279)" fill="#cdaa6a"/>
            <circle id="Ellipse_6478" data-name="Ellipse 6478" cx="5" cy="5" r="5" transform="translate(1542 301)" fill="#cdaa6a"/>
            <circle id="Ellipse_6479" data-name="Ellipse 6479" cx="5" cy="5" r="5" transform="translate(1542 323)" fill="#cdaa6a"/>
            <circle id="Ellipse_6480" data-name="Ellipse 6480" cx="5" cy="5" r="5" transform="translate(1542 367)" fill="#cdaa6a"/>
            <circle id="Ellipse_6481" data-name="Ellipse 6481" cx="5" cy="5" r="5" transform="translate(1542 345)" fill="#cdaa6a"/>
            <circle id="Ellipse_6482" data-name="Ellipse 6482" cx="5" cy="5" r="5" transform="translate(1524 257)" fill="#cdaa6a"/>
            <circle id="Ellipse_6483" data-name="Ellipse 6483" cx="5" cy="5" r="5" transform="translate(1524 279)" fill="#cdaa6a"/>
            <circle id="Ellipse_6484" data-name="Ellipse 6484" cx="5" cy="5" r="5" transform="translate(1524 301)" fill="#cdaa6a"/>
            <circle id="Ellipse_6485" data-name="Ellipse 6485" cx="5" cy="5" r="5" transform="translate(1524 323)" fill="#cdaa6a"/>
            <circle id="Ellipse_6486" data-name="Ellipse 6486" cx="5" cy="5" r="5" transform="translate(1524 367)" fill="#cdaa6a"/>
            <circle id="Ellipse_6487" data-name="Ellipse 6487" cx="5" cy="5" r="5" transform="translate(1524 345)" fill="#cdaa6a"/>
          </g>
          <g id="Group_176576" data-name="Group 176576" transform="translate(-1484 2539)" opacity="0.38">
            <circle id="Ellipse_6488" data-name="Ellipse 6488" cx="5" cy="5" r="5" transform="translate(1542 257)" fill="#cdaa6a"/>
            <circle id="Ellipse_6489" data-name="Ellipse 6489" cx="5" cy="5" r="5" transform="translate(1542 279)" fill="#cdaa6a"/>
            <circle id="Ellipse_6490" data-name="Ellipse 6490" cx="5" cy="5" r="5" transform="translate(1542 301)" fill="#cdaa6a"/>
            <circle id="Ellipse_6491" data-name="Ellipse 6491" cx="5" cy="5" r="5" transform="translate(1542 323)" fill="#cdaa6a"/>
            <circle id="Ellipse_6492" data-name="Ellipse 6492" cx="5" cy="5" r="5" transform="translate(1542 367)" fill="#cdaa6a"/>
            <circle id="Ellipse_6493" data-name="Ellipse 6493" cx="5" cy="5" r="5" transform="translate(1542 345)" fill="#cdaa6a"/>
            <circle id="Ellipse_6494" data-name="Ellipse 6494" cx="5" cy="5" r="5" transform="translate(1524 257)" fill="#cdaa6a"/>
            <circle id="Ellipse_6495" data-name="Ellipse 6495" cx="5" cy="5" r="5" transform="translate(1524 279)" fill="#cdaa6a"/>
            <circle id="Ellipse_6496" data-name="Ellipse 6496" cx="5" cy="5" r="5" transform="translate(1524 301)" fill="#cdaa6a"/>
            <circle id="Ellipse_6497" data-name="Ellipse 6497" cx="5" cy="5" r="5" transform="translate(1524 323)" fill="#cdaa6a"/>
            <circle id="Ellipse_6498" data-name="Ellipse 6498" cx="5" cy="5" r="5" transform="translate(1524 367)" fill="#cdaa6a"/>
            <circle id="Ellipse_6499" data-name="Ellipse 6499" cx="5" cy="5" r="5" transform="translate(1524 345)" fill="#cdaa6a"/>
          </g>
          <g id="Group_176577" data-name="Group 176577" transform="translate(-1524 2539)" opacity="0.38">
            <circle id="Ellipse_6500" data-name="Ellipse 6500" cx="5" cy="5" r="5" transform="translate(1542 257)" fill="#cdaa6a"/>
            <circle id="Ellipse_6501" data-name="Ellipse 6501" cx="5" cy="5" r="5" transform="translate(1542 279)" fill="#cdaa6a"/>
            <circle id="Ellipse_6502" data-name="Ellipse 6502" cx="5" cy="5" r="5" transform="translate(1542 301)" fill="#cdaa6a"/>
            <circle id="Ellipse_6503" data-name="Ellipse 6503" cx="5" cy="5" r="5" transform="translate(1542 323)" fill="#cdaa6a"/>
            <circle id="Ellipse_6504" data-name="Ellipse 6504" cx="5" cy="5" r="5" transform="translate(1542 367)" fill="#cdaa6a"/>
            <circle id="Ellipse_6505" data-name="Ellipse 6505" cx="5" cy="5" r="5" transform="translate(1542 345)" fill="#cdaa6a"/>
            <circle id="Ellipse_6506" data-name="Ellipse 6506" cx="5" cy="5" r="5" transform="translate(1524 257)" fill="#cdaa6a"/>
            <circle id="Ellipse_6507" data-name="Ellipse 6507" cx="5" cy="5" r="5" transform="translate(1524 279)" fill="#cdaa6a"/>
            <circle id="Ellipse_6508" data-name="Ellipse 6508" cx="5" cy="5" r="5" transform="translate(1524 301)" fill="#cdaa6a"/>
            <circle id="Ellipse_6509" data-name="Ellipse 6509" cx="5" cy="5" r="5" transform="translate(1524 323)" fill="#cdaa6a"/>
            <circle id="Ellipse_6510" data-name="Ellipse 6510" cx="5" cy="5" r="5" transform="translate(1524 367)" fill="#cdaa6a"/>
            <circle id="Ellipse_6511" data-name="Ellipse 6511" cx="5" cy="5" r="5" transform="translate(1524 345)" fill="#cdaa6a"/>
          </g>
        </g>
        <g id="Group_176587" data-name="Group 176587" transform="translate(1452 -1545)" opacity="0.25">
          <g id="Group_176579" data-name="Group 176579" transform="translate(-1404 2407)" opacity="0.38">
            <circle id="Ellipse_6512" data-name="Ellipse 6512" cx="5" cy="5" r="5" transform="translate(1542 257)" fill="#cdaa6a"/>
            <circle id="Ellipse_6513" data-name="Ellipse 6513" cx="5" cy="5" r="5" transform="translate(1542 279)" fill="#cdaa6a"/>
            <circle id="Ellipse_6514" data-name="Ellipse 6514" cx="5" cy="5" r="5" transform="translate(1542 301)" fill="#cdaa6a"/>
            <circle id="Ellipse_6515" data-name="Ellipse 6515" cx="5" cy="5" r="5" transform="translate(1542 323)" fill="#cdaa6a"/>
            <circle id="Ellipse_6516" data-name="Ellipse 6516" cx="5" cy="5" r="5" transform="translate(1542 367)" fill="#cdaa6a"/>
            <circle id="Ellipse_6517" data-name="Ellipse 6517" cx="5" cy="5" r="5" transform="translate(1542 345)" fill="#cdaa6a"/>
            <circle id="Ellipse_6518" data-name="Ellipse 6518" cx="5" cy="5" r="5" transform="translate(1524 257)" fill="#cdaa6a"/>
            <circle id="Ellipse_6519" data-name="Ellipse 6519" cx="5" cy="5" r="5" transform="translate(1524 279)" fill="#cdaa6a"/>
            <circle id="Ellipse_6520" data-name="Ellipse 6520" cx="5" cy="5" r="5" transform="translate(1524 301)" fill="#cdaa6a"/>
            <circle id="Ellipse_6521" data-name="Ellipse 6521" cx="5" cy="5" r="5" transform="translate(1524 323)" fill="#cdaa6a"/>
            <circle id="Ellipse_6522" data-name="Ellipse 6522" cx="5" cy="5" r="5" transform="translate(1524 367)" fill="#cdaa6a"/>
            <circle id="Ellipse_6523" data-name="Ellipse 6523" cx="5" cy="5" r="5" transform="translate(1524 345)" fill="#cdaa6a"/>
          </g>
          <g id="Group_176580" data-name="Group 176580" transform="translate(-1444 2407)" opacity="0.38">
            <circle id="Ellipse_6524" data-name="Ellipse 6524" cx="5" cy="5" r="5" transform="translate(1542 257)" fill="#cdaa6a"/>
            <circle id="Ellipse_6525" data-name="Ellipse 6525" cx="5" cy="5" r="5" transform="translate(1542 279)" fill="#cdaa6a"/>
            <circle id="Ellipse_6526" data-name="Ellipse 6526" cx="5" cy="5" r="5" transform="translate(1542 301)" fill="#cdaa6a"/>
            <circle id="Ellipse_6527" data-name="Ellipse 6527" cx="5" cy="5" r="5" transform="translate(1542 323)" fill="#cdaa6a"/>
            <circle id="Ellipse_6528" data-name="Ellipse 6528" cx="5" cy="5" r="5" transform="translate(1542 367)" fill="#cdaa6a"/>
            <circle id="Ellipse_6529" data-name="Ellipse 6529" cx="5" cy="5" r="5" transform="translate(1542 345)" fill="#cdaa6a"/>
            <circle id="Ellipse_6530" data-name="Ellipse 6530" cx="5" cy="5" r="5" transform="translate(1524 257)" fill="#cdaa6a"/>
            <circle id="Ellipse_6531" data-name="Ellipse 6531" cx="5" cy="5" r="5" transform="translate(1524 279)" fill="#cdaa6a"/>
            <circle id="Ellipse_6532" data-name="Ellipse 6532" cx="5" cy="5" r="5" transform="translate(1524 301)" fill="#cdaa6a"/>
            <circle id="Ellipse_6533" data-name="Ellipse 6533" cx="5" cy="5" r="5" transform="translate(1524 323)" fill="#cdaa6a"/>
            <circle id="Ellipse_6534" data-name="Ellipse 6534" cx="5" cy="5" r="5" transform="translate(1524 367)" fill="#cdaa6a"/>
            <circle id="Ellipse_6535" data-name="Ellipse 6535" cx="5" cy="5" r="5" transform="translate(1524 345)" fill="#cdaa6a"/>
          </g>
          <g id="Group_176581" data-name="Group 176581" transform="translate(-1484 2407)" opacity="0.38">
            <circle id="Ellipse_6536" data-name="Ellipse 6536" cx="5" cy="5" r="5" transform="translate(1542 257)" fill="#cdaa6a"/>
            <circle id="Ellipse_6537" data-name="Ellipse 6537" cx="5" cy="5" r="5" transform="translate(1542 279)" fill="#cdaa6a"/>
            <circle id="Ellipse_6538" data-name="Ellipse 6538" cx="5" cy="5" r="5" transform="translate(1542 301)" fill="#cdaa6a"/>
            <circle id="Ellipse_6539" data-name="Ellipse 6539" cx="5" cy="5" r="5" transform="translate(1542 323)" fill="#cdaa6a"/>
            <circle id="Ellipse_6540" data-name="Ellipse 6540" cx="5" cy="5" r="5" transform="translate(1542 367)" fill="#cdaa6a"/>
            <circle id="Ellipse_6541" data-name="Ellipse 6541" cx="5" cy="5" r="5" transform="translate(1542 345)" fill="#cdaa6a"/>
            <circle id="Ellipse_6542" data-name="Ellipse 6542" cx="5" cy="5" r="5" transform="translate(1524 257)" fill="#cdaa6a"/>
            <circle id="Ellipse_6543" data-name="Ellipse 6543" cx="5" cy="5" r="5" transform="translate(1524 279)" fill="#cdaa6a"/>
            <circle id="Ellipse_6544" data-name="Ellipse 6544" cx="5" cy="5" r="5" transform="translate(1524 301)" fill="#cdaa6a"/>
            <circle id="Ellipse_6545" data-name="Ellipse 6545" cx="5" cy="5" r="5" transform="translate(1524 323)" fill="#cdaa6a"/>
            <circle id="Ellipse_6546" data-name="Ellipse 6546" cx="5" cy="5" r="5" transform="translate(1524 367)" fill="#cdaa6a"/>
            <circle id="Ellipse_6547" data-name="Ellipse 6547" cx="5" cy="5" r="5" transform="translate(1524 345)" fill="#cdaa6a"/>
          </g>
          <g id="Group_176582" data-name="Group 176582" transform="translate(-1524 2407)" opacity="0.38">
            <circle id="Ellipse_6548" data-name="Ellipse 6548" cx="5" cy="5" r="5" transform="translate(1542 257)" fill="#cdaa6a"/>
            <circle id="Ellipse_6549" data-name="Ellipse 6549" cx="5" cy="5" r="5" transform="translate(1542 279)" fill="#cdaa6a"/>
            <circle id="Ellipse_6550" data-name="Ellipse 6550" cx="5" cy="5" r="5" transform="translate(1542 301)" fill="#cdaa6a"/>
            <circle id="Ellipse_6551" data-name="Ellipse 6551" cx="5" cy="5" r="5" transform="translate(1542 323)" fill="#cdaa6a"/>
            <circle id="Ellipse_6552" data-name="Ellipse 6552" cx="5" cy="5" r="5" transform="translate(1542 367)" fill="#cdaa6a"/>
            <circle id="Ellipse_6553" data-name="Ellipse 6553" cx="5" cy="5" r="5" transform="translate(1542 345)" fill="#cdaa6a"/>
            <circle id="Ellipse_6554" data-name="Ellipse 6554" cx="5" cy="5" r="5" transform="translate(1524 257)" fill="#cdaa6a"/>
            <circle id="Ellipse_6555" data-name="Ellipse 6555" cx="5" cy="5" r="5" transform="translate(1524 279)" fill="#cdaa6a"/>
            <circle id="Ellipse_6556" data-name="Ellipse 6556" cx="5" cy="5" r="5" transform="translate(1524 301)" fill="#cdaa6a"/>
            <circle id="Ellipse_6557" data-name="Ellipse 6557" cx="5" cy="5" r="5" transform="translate(1524 323)" fill="#cdaa6a"/>
            <circle id="Ellipse_6558" data-name="Ellipse 6558" cx="5" cy="5" r="5" transform="translate(1524 367)" fill="#cdaa6a"/>
            <circle id="Ellipse_6559" data-name="Ellipse 6559" cx="5" cy="5" r="5" transform="translate(1524 345)" fill="#cdaa6a"/>
          </g>
          <g id="Group_176583" data-name="Group 176583" transform="translate(-1404 2539)" opacity="0.38">
            <circle id="Ellipse_6560" data-name="Ellipse 6560" cx="5" cy="5" r="5" transform="translate(1542 257)" fill="#cdaa6a"/>
            <circle id="Ellipse_6561" data-name="Ellipse 6561" cx="5" cy="5" r="5" transform="translate(1542 279)" fill="#cdaa6a"/>
            <circle id="Ellipse_6562" data-name="Ellipse 6562" cx="5" cy="5" r="5" transform="translate(1542 301)" fill="#cdaa6a"/>
            <circle id="Ellipse_6563" data-name="Ellipse 6563" cx="5" cy="5" r="5" transform="translate(1542 323)" fill="#cdaa6a"/>
            <circle id="Ellipse_6564" data-name="Ellipse 6564" cx="5" cy="5" r="5" transform="translate(1542 367)" fill="#cdaa6a"/>
            <circle id="Ellipse_6565" data-name="Ellipse 6565" cx="5" cy="5" r="5" transform="translate(1542 345)" fill="#cdaa6a"/>
            <circle id="Ellipse_6566" data-name="Ellipse 6566" cx="5" cy="5" r="5" transform="translate(1524 257)" fill="#cdaa6a"/>
            <circle id="Ellipse_6567" data-name="Ellipse 6567" cx="5" cy="5" r="5" transform="translate(1524 279)" fill="#cdaa6a"/>
            <circle id="Ellipse_6568" data-name="Ellipse 6568" cx="5" cy="5" r="5" transform="translate(1524 301)" fill="#cdaa6a"/>
            <circle id="Ellipse_6569" data-name="Ellipse 6569" cx="5" cy="5" r="5" transform="translate(1524 323)" fill="#cdaa6a"/>
            <circle id="Ellipse_6570" data-name="Ellipse 6570" cx="5" cy="5" r="5" transform="translate(1524 367)" fill="#cdaa6a"/>
            <circle id="Ellipse_6571" data-name="Ellipse 6571" cx="5" cy="5" r="5" transform="translate(1524 345)" fill="#cdaa6a"/>
          </g>
          <g id="Group_176584" data-name="Group 176584" transform="translate(-1444 2539)" opacity="0.38">
            <circle id="Ellipse_6572" data-name="Ellipse 6572" cx="5" cy="5" r="5" transform="translate(1542 257)" fill="#cdaa6a"/>
            <circle id="Ellipse_6573" data-name="Ellipse 6573" cx="5" cy="5" r="5" transform="translate(1542 279)" fill="#cdaa6a"/>
            <circle id="Ellipse_6574" data-name="Ellipse 6574" cx="5" cy="5" r="5" transform="translate(1542 301)" fill="#cdaa6a"/>
            <circle id="Ellipse_6575" data-name="Ellipse 6575" cx="5" cy="5" r="5" transform="translate(1542 323)" fill="#cdaa6a"/>
            <circle id="Ellipse_6576" data-name="Ellipse 6576" cx="5" cy="5" r="5" transform="translate(1542 367)" fill="#cdaa6a"/>
            <circle id="Ellipse_6577" data-name="Ellipse 6577" cx="5" cy="5" r="5" transform="translate(1542 345)" fill="#cdaa6a"/>
            <circle id="Ellipse_6578" data-name="Ellipse 6578" cx="5" cy="5" r="5" transform="translate(1524 257)" fill="#cdaa6a"/>
            <circle id="Ellipse_6579" data-name="Ellipse 6579" cx="5" cy="5" r="5" transform="translate(1524 279)" fill="#cdaa6a"/>
            <circle id="Ellipse_6580" data-name="Ellipse 6580" cx="5" cy="5" r="5" transform="translate(1524 301)" fill="#cdaa6a"/>
            <circle id="Ellipse_6581" data-name="Ellipse 6581" cx="5" cy="5" r="5" transform="translate(1524 323)" fill="#cdaa6a"/>
            <circle id="Ellipse_6582" data-name="Ellipse 6582" cx="5" cy="5" r="5" transform="translate(1524 367)" fill="#cdaa6a"/>
            <circle id="Ellipse_6583" data-name="Ellipse 6583" cx="5" cy="5" r="5" transform="translate(1524 345)" fill="#cdaa6a"/>
          </g>
          <g id="Group_176585" data-name="Group 176585" transform="translate(-1484 2539)" opacity="0.38">
            <circle id="Ellipse_6584" data-name="Ellipse 6584" cx="5" cy="5" r="5" transform="translate(1542 257)" fill="#cdaa6a"/>
            <circle id="Ellipse_6585" data-name="Ellipse 6585" cx="5" cy="5" r="5" transform="translate(1542 279)" fill="#cdaa6a"/>
            <circle id="Ellipse_6586" data-name="Ellipse 6586" cx="5" cy="5" r="5" transform="translate(1542 301)" fill="#cdaa6a"/>
            <circle id="Ellipse_6587" data-name="Ellipse 6587" cx="5" cy="5" r="5" transform="translate(1542 323)" fill="#cdaa6a"/>
            <circle id="Ellipse_6588" data-name="Ellipse 6588" cx="5" cy="5" r="5" transform="translate(1542 367)" fill="#cdaa6a"/>
            <circle id="Ellipse_6589" data-name="Ellipse 6589" cx="5" cy="5" r="5" transform="translate(1542 345)" fill="#cdaa6a"/>
            <circle id="Ellipse_6590" data-name="Ellipse 6590" cx="5" cy="5" r="5" transform="translate(1524 257)" fill="#cdaa6a"/>
            <circle id="Ellipse_6591" data-name="Ellipse 6591" cx="5" cy="5" r="5" transform="translate(1524 279)" fill="#cdaa6a"/>
            <circle id="Ellipse_6592" data-name="Ellipse 6592" cx="5" cy="5" r="5" transform="translate(1524 301)" fill="#cdaa6a"/>
            <circle id="Ellipse_6593" data-name="Ellipse 6593" cx="5" cy="5" r="5" transform="translate(1524 323)" fill="#cdaa6a"/>
            <circle id="Ellipse_6594" data-name="Ellipse 6594" cx="5" cy="5" r="5" transform="translate(1524 367)" fill="#cdaa6a"/>
            <circle id="Ellipse_6595" data-name="Ellipse 6595" cx="5" cy="5" r="5" transform="translate(1524 345)" fill="#cdaa6a"/>
          </g>
          <g id="Group_176586" data-name="Group 176586" transform="translate(-1524 2539)" opacity="0.38">
            <circle id="Ellipse_6596" data-name="Ellipse 6596" cx="5" cy="5" r="5" transform="translate(1542 257)" fill="#cdaa6a"/>
            <circle id="Ellipse_6597" data-name="Ellipse 6597" cx="5" cy="5" r="5" transform="translate(1542 279)" fill="#cdaa6a"/>
            <circle id="Ellipse_6598" data-name="Ellipse 6598" cx="5" cy="5" r="5" transform="translate(1542 301)" fill="#cdaa6a"/>
            <circle id="Ellipse_6599" data-name="Ellipse 6599" cx="5" cy="5" r="5" transform="translate(1542 323)" fill="#cdaa6a"/>
            <circle id="Ellipse_6600" data-name="Ellipse 6600" cx="5" cy="5" r="5" transform="translate(1542 367)" fill="#cdaa6a"/>
            <circle id="Ellipse_6601" data-name="Ellipse 6601" cx="5" cy="5" r="5" transform="translate(1542 345)" fill="#cdaa6a"/>
            <circle id="Ellipse_6602" data-name="Ellipse 6602" cx="5" cy="5" r="5" transform="translate(1524 257)" fill="#cdaa6a"/>
            <circle id="Ellipse_6603" data-name="Ellipse 6603" cx="5" cy="5" r="5" transform="translate(1524 279)" fill="#cdaa6a"/>
            <circle id="Ellipse_6604" data-name="Ellipse 6604" cx="5" cy="5" r="5" transform="translate(1524 301)" fill="#cdaa6a"/>
            <circle id="Ellipse_6605" data-name="Ellipse 6605" cx="5" cy="5" r="5" transform="translate(1524 323)" fill="#cdaa6a"/>
            <circle id="Ellipse_6606" data-name="Ellipse 6606" cx="5" cy="5" r="5" transform="translate(1524 367)" fill="#cdaa6a"/>
            <circle id="Ellipse_6607" data-name="Ellipse 6607" cx="5" cy="5" r="5" transform="translate(1524 345)" fill="#cdaa6a"/>
          </g>
        </g>
      </g>
    </g>
  </g>
</svg>
