<svg xmlns="http://www.w3.org/2000/svg" width="24.057" height="24.057" viewBox="0 0 24.057 24.057">
  <g id="consulting" transform="translate(-9.25 -9.25)">
    <path id="Path_56005" data-name="Path 56005" d="M23.267,30.191l-.029-.014a7.579,7.579,0,0,0-.8-.346,4.409,4.409,0,0,0,.858-2.463,1.819,1.819,0,0,0,.006-3.559c-.05-3.043-1.365-6.225-4.932-6.225H13.479a.385.385,0,0,0-.383.349,5.024,5.024,0,0,0,1.016,3.482c.009.01.02.019.03.029a4.9,4.9,0,0,0-.7,2.364,1.819,1.819,0,0,0,0,3.559,4.409,4.409,0,0,0,.858,2.463,7.582,7.582,0,0,0-.8.346l-.031.015A7.688,7.688,0,0,0,9.25,37.031v2.393a.384.384,0,1,0,.769,0V37.031A6.914,6.914,0,0,1,13.6,30.992l2.781,2.4a.384.384,0,0,0,.531-.027l.584-.619.47.939-1.1,5.665a.384.384,0,0,0,.3.451.391.391,0,0,0,.073.007.385.385,0,0,0,.377-.312l.743-3.842.743,3.842a.385.385,0,0,0,.755-.146l-1.1-5.665.469-.939.584.619a.384.384,0,0,0,.531.027l2.781-2.4a6.914,6.914,0,0,1,3.579,6.039v2.393a.384.384,0,1,0,.769,0V37.031A7.688,7.688,0,0,0,23.267,30.191Zm.7-4.6a1.051,1.051,0,0,1-.666.976V24.611A1.051,1.051,0,0,1,23.966,25.587ZM13.853,18.352h4.513c3.273,0,3.989,3.094,4.132,4.845l-.146-.145a4.7,4.7,0,0,0-3.328-1.368h-2.3a2.628,2.628,0,0,1-2.036-.786A3.986,3.986,0,0,1,13.853,18.352Zm-1.087,7.235a1.051,1.051,0,0,1,.666-.976v1.951A1.051,1.051,0,0,1,12.765,25.587Zm1.435-1.6a4.145,4.145,0,0,1,.542-2.055,3.649,3.649,0,0,0,1.977.518h2.3A3.938,3.938,0,0,1,21.81,23.6l.72.712v2.9a3.675,3.675,0,0,1-3.671,3.672h-.989a3.675,3.675,0,0,1-3.67-3.672Zm2.4,8.58-2.244-1.937c.163-.066.33-.123.5-.176a4.419,4.419,0,0,0,2.635,1.17Zm1.763.2-.31-.62.31-.33.31.33Zm1.762-.2-.89-.942a4.419,4.419,0,0,0,2.636-1.17c.169.053.335.11.5.176Z" transform="translate(0 -6.502)" fill="#cdaa6a"/>
    <path id="Path_56006" data-name="Path 56006" d="M24.689,29.164a.384.384,0,0,0-.384.384v3.373a.384.384,0,0,0,.769,0V29.549a.384.384,0,0,0-.384-.384Zm10.847,0a.384.384,0,0,0-.384.384v3.373a.384.384,0,0,0,.769,0V29.549a.384.384,0,0,0-.384-.384ZM28.608,21.52a1.505,1.505,0,1,0,3.01,0,.385.385,0,1,0-.769,0,.736.736,0,0,1-1.472,0,.384.384,0,0,0-.769,0Zm-.28-2.48a.652.652,0,1,0-.652-.652.652.652,0,0,0,.652.652Zm3.572,0a.652.652,0,1,0-.652-.652A.652.652,0,0,0,31.9,19.04ZM44.67,9.25H36.1a.384.384,0,0,0-.384.384V15.29a.384.384,0,0,0,.384.384h1.084v1.142a.384.384,0,0,0,.656.273l1.415-1.415H44.67a.384.384,0,0,0,.384-.384V9.634a.384.384,0,0,0-.384-.384Zm-.384,5.655H39.094a.384.384,0,0,0-.272.113l-.872.871v-.6a.384.384,0,0,0-.384-.384H36.482V10.019h7.8Z" transform="translate(-11.747)" fill="#cdaa6a"/>
    <path id="Path_56007" data-name="Path 56007" d="M87.046,21.586a.652.652,0,1,0-.652-.652A.652.652,0,0,0,87.046,21.586Zm3.572,0a.652.652,0,1,0-.652-.652A.652.652,0,0,0,90.618,21.586Zm-1.786,0a.652.652,0,1,0-.652-.652A.652.652,0,0,0,88.832,21.586Z" transform="translate(-60.196 -8.608)" fill="#cdaa6a"/>
  </g>
</svg>
