<svg xmlns="http://www.w3.org/2000/svg" width="20.744" height="20.746" viewBox="0 0 20.744 20.746">
  <g id="exit" transform="translate(-2 -2)">
    <path id="Path_56003" data-name="Path 56003" d="M16.077,15.336v5.927A1.483,1.483,0,0,1,14.6,22.746H3.482A1.483,1.483,0,0,1,2,21.264V3.482A1.483,1.483,0,0,1,3.482,2H14.6a1.483,1.483,0,0,1,1.482,1.482V9.409a.741.741,0,0,1-1.482,0V3.482H3.482V21.264H14.6V15.336a.741.741,0,0,1,1.482,0Z" fill="red"/>
    <path id="Path_56004" data-name="Path 56004" d="M25.9,15.229l-2.963,2.963a.741.741,0,0,1-1.048-1.048l1.7-1.7H15.741a.741.741,0,1,1,0-1.482h7.843l-1.7-1.7a.741.741,0,0,1,1.048-1.048L25.9,14.18a.744.744,0,0,1,0,1.049Z" transform="translate(-3.368 -2.332)" fill="red"/>
  </g>
</svg>
