<svg xmlns="http://www.w3.org/2000/svg" xmlns:xlink="http://www.w3.org/1999/xlink" width="40" height="40" viewBox="0 0 40 40">
  <defs>
    <clipPath id="clip-path">
      <rect id="Rectangle_27455" data-name="Rectangle 27455" width="40" height="40" rx="5" fill="#fff"/>
    </clipPath>
  </defs>
  <g id="Mask_Group_21" data-name="Mask Group 21" clip-path="url(#clip-path)">
    <g id="Group_27305" data-name="Group 27305">
      <path id="Path_29518" data-name="Path 29518" d="M30.655,19.351v12.5a9.271,9.271,0,0,0,9.274,9.272h0A9.271,9.271,0,0,0,49.2,31.851V16.4a6.179,6.179,0,0,0-6.181-6.181h0A6.179,6.179,0,0,0,36.838,16.4V30.585a3.09,3.09,0,0,0,3.091,3.091h0a3.09,3.09,0,0,0,3.091-3.091V19.491" transform="translate(-19.972 -5.866)" fill="none" stroke="#cdaa6a" stroke-linecap="round" stroke-linejoin="round" stroke-width="2.83"/>
      <path id="Path_29519" data-name="Path 29519" d="M0,0H40.359V40.359H0Z" fill="none"/>
    </g>
  </g>
</svg>
