<svg xmlns="http://www.w3.org/2000/svg" xmlns:xlink="http://www.w3.org/1999/xlink" width="148" height="38" viewBox="0 0 148 38">
  <defs>
    <clipPath id="clip-path">
      <rect width="148" height="38" fill="none"/>
    </clipPath>
  </defs>
  <g id="Scroll_Group_1" data-name="Scroll Group 1" clip-path="url(#clip-path)" style="isolation: isolate">
    <g id="Group_176477" data-name="Group 176477" transform="translate(-542 -6287)">
      <g id="Group_176138" data-name="Group 176138" transform="translate(542 6287)" opacity="0.65">
        <g id="Group_176042" data-name="Group 176042" transform="translate(120)" opacity="0.38">
          <circle id="Ellipse_36" data-name="Ellipse 36" cx="5" cy="5" r="5" transform="translate(18)" fill="#fff"/>
          <circle id="Ellipse_39" data-name="Ellipse 39" cx="5" cy="5" r="5" transform="translate(18 22)" fill="#fff"/>
          <circle id="Ellipse_41" data-name="Ellipse 41" cx="5" cy="5" r="5" transform="translate(18 44)" fill="#fff"/>
          <circle id="Ellipse_43" data-name="Ellipse 43" cx="5" cy="5" r="5" transform="translate(18 66)" fill="#fff"/>
          <circle id="Ellipse_46" data-name="Ellipse 46" cx="5" cy="5" r="5" transform="translate(18 110)" fill="#fff"/>
          <circle id="Ellipse_45" data-name="Ellipse 45" cx="5" cy="5" r="5" transform="translate(18 88)" fill="#fff"/>
          <circle id="Ellipse_37" data-name="Ellipse 37" cx="5" cy="5" r="5" fill="#fff"/>
          <circle id="Ellipse_38" data-name="Ellipse 38" cx="5" cy="5" r="5" transform="translate(0 22)" fill="#fff"/>
          <circle id="Ellipse_40" data-name="Ellipse 40" cx="5" cy="5" r="5" transform="translate(0 44)" fill="#fff"/>
          <circle id="Ellipse_42" data-name="Ellipse 42" cx="5" cy="5" r="5" transform="translate(0 66)" fill="#fff"/>
          <circle id="Ellipse_47" data-name="Ellipse 47" cx="5" cy="5" r="5" transform="translate(0 110)" fill="#fff"/>
          <circle id="Ellipse_44" data-name="Ellipse 44" cx="5" cy="5" r="5" transform="translate(0 88)" fill="#fff"/>
        </g>
        <g id="Group_176043" data-name="Group 176043" transform="translate(80)" opacity="0.38">
          <circle id="Ellipse_36-2" data-name="Ellipse 36" cx="5" cy="5" r="5" transform="translate(18)" fill="#fff"/>
          <circle id="Ellipse_39-2" data-name="Ellipse 39" cx="5" cy="5" r="5" transform="translate(18 22)" fill="#fff"/>
          <circle id="Ellipse_41-2" data-name="Ellipse 41" cx="5" cy="5" r="5" transform="translate(18 44)" fill="#fff"/>
          <circle id="Ellipse_43-2" data-name="Ellipse 43" cx="5" cy="5" r="5" transform="translate(18 66)" fill="#fff"/>
          <circle id="Ellipse_46-2" data-name="Ellipse 46" cx="5" cy="5" r="5" transform="translate(18 110)" fill="#fff"/>
          <circle id="Ellipse_45-2" data-name="Ellipse 45" cx="5" cy="5" r="5" transform="translate(18 88)" fill="#fff"/>
          <circle id="Ellipse_37-2" data-name="Ellipse 37" cx="5" cy="5" r="5" fill="#fff"/>
          <circle id="Ellipse_38-2" data-name="Ellipse 38" cx="5" cy="5" r="5" transform="translate(0 22)" fill="#fff"/>
          <circle id="Ellipse_40-2" data-name="Ellipse 40" cx="5" cy="5" r="5" transform="translate(0 44)" fill="#fff"/>
          <circle id="Ellipse_42-2" data-name="Ellipse 42" cx="5" cy="5" r="5" transform="translate(0 66)" fill="#fff"/>
          <circle id="Ellipse_47-2" data-name="Ellipse 47" cx="5" cy="5" r="5" transform="translate(0 110)" fill="#fff"/>
          <circle id="Ellipse_44-2" data-name="Ellipse 44" cx="5" cy="5" r="5" transform="translate(0 88)" fill="#fff"/>
        </g>
        <g id="Group_176044" data-name="Group 176044" transform="translate(40)" opacity="0.38">
          <circle id="Ellipse_36-3" data-name="Ellipse 36" cx="5" cy="5" r="5" transform="translate(18)" fill="#fff"/>
          <circle id="Ellipse_39-3" data-name="Ellipse 39" cx="5" cy="5" r="5" transform="translate(18 22)" fill="#fff"/>
          <circle id="Ellipse_41-3" data-name="Ellipse 41" cx="5" cy="5" r="5" transform="translate(18 44)" fill="#fff"/>
          <circle id="Ellipse_43-3" data-name="Ellipse 43" cx="5" cy="5" r="5" transform="translate(18 66)" fill="#fff"/>
          <circle id="Ellipse_46-3" data-name="Ellipse 46" cx="5" cy="5" r="5" transform="translate(18 110)" fill="#fff"/>
          <circle id="Ellipse_45-3" data-name="Ellipse 45" cx="5" cy="5" r="5" transform="translate(18 88)" fill="#fff"/>
          <circle id="Ellipse_37-3" data-name="Ellipse 37" cx="5" cy="5" r="5" fill="#fff"/>
          <circle id="Ellipse_38-3" data-name="Ellipse 38" cx="5" cy="5" r="5" transform="translate(0 22)" fill="#fff"/>
          <circle id="Ellipse_40-3" data-name="Ellipse 40" cx="5" cy="5" r="5" transform="translate(0 44)" fill="#fff"/>
          <circle id="Ellipse_42-3" data-name="Ellipse 42" cx="5" cy="5" r="5" transform="translate(0 66)" fill="#fff"/>
          <circle id="Ellipse_47-3" data-name="Ellipse 47" cx="5" cy="5" r="5" transform="translate(0 110)" fill="#fff"/>
          <circle id="Ellipse_44-3" data-name="Ellipse 44" cx="5" cy="5" r="5" transform="translate(0 88)" fill="#fff"/>
        </g>
        <g id="Group_176045" data-name="Group 176045" opacity="0.38">
          <circle id="Ellipse_36-4" data-name="Ellipse 36" cx="5" cy="5" r="5" transform="translate(18)" fill="#fff"/>
          <circle id="Ellipse_39-4" data-name="Ellipse 39" cx="5" cy="5" r="5" transform="translate(18 22)" fill="#fff"/>
          <circle id="Ellipse_41-4" data-name="Ellipse 41" cx="5" cy="5" r="5" transform="translate(18 44)" fill="#fff"/>
          <circle id="Ellipse_43-4" data-name="Ellipse 43" cx="5" cy="5" r="5" transform="translate(18 66)" fill="#fff"/>
          <circle id="Ellipse_46-4" data-name="Ellipse 46" cx="5" cy="5" r="5" transform="translate(18 110)" fill="#fff"/>
          <circle id="Ellipse_45-4" data-name="Ellipse 45" cx="5" cy="5" r="5" transform="translate(18 88)" fill="#fff"/>
          <circle id="Ellipse_37-4" data-name="Ellipse 37" cx="5" cy="5" r="5" fill="#fff"/>
          <circle id="Ellipse_38-4" data-name="Ellipse 38" cx="5" cy="5" r="5" transform="translate(0 22)" fill="#fff"/>
          <circle id="Ellipse_40-4" data-name="Ellipse 40" cx="5" cy="5" r="5" transform="translate(0 44)" fill="#fff"/>
          <circle id="Ellipse_42-4" data-name="Ellipse 42" cx="5" cy="5" r="5" transform="translate(0 66)" fill="#fff"/>
          <circle id="Ellipse_47-4" data-name="Ellipse 47" cx="5" cy="5" r="5" transform="translate(0 110)" fill="#fff"/>
          <circle id="Ellipse_44-4" data-name="Ellipse 44" cx="5" cy="5" r="5" transform="translate(0 88)" fill="#fff"/>
        </g>
      </g>
    </g>
  </g>
</svg>
