<svg xmlns="http://www.w3.org/2000/svg" width="23.232" height="23.232" viewBox="0 0 23.232 23.232">
  <path id="profile" d="M135.616,2010.616a4.646,4.646,0,1,1,4.668-4.646,4.662,4.662,0,0,1-4.668,4.646m4.386.782a6.944,6.944,0,0,0,2.535-6.509,7.006,7.006,0,0,0-13.923,1.081,6.939,6.939,0,0,0,2.616,5.428,11.074,11.074,0,0,0-7.225,9.546,1.176,1.176,0,0,0,1.166,1.288,1.15,1.15,0,0,0,1.153-1.035c.468-5.184,4.456-8.258,9.291-8.258s8.823,3.073,9.291,8.258a1.15,1.15,0,0,0,1.153,1.035,1.175,1.175,0,0,0,1.165-1.288A11.07,11.07,0,0,0,140,2011.4" transform="translate(-123.999 -1999)" fill="#cdaa6a" fill-rule="evenodd"/>
</svg>
