<svg xmlns="http://www.w3.org/2000/svg" xmlns:xlink="http://www.w3.org/1999/xlink" width="150" height="151" viewBox="0 0 150 151">
  <defs>
    <clipPath id="clip-path">
      <rect id="Rectangle_27485" data-name="Rectangle 27485" width="150" height="151" rx="5" fill="#fff" stroke="#707070" stroke-width="1"/>
    </clipPath>
  </defs>
  <g id="Mask_Group_38" data-name="Mask Group 38" clip-path="url(#clip-path)">
    <g id="consulting" transform="translate(9.16 9)">
      <path id="Path_56008" data-name="Path 56008" d="M90.012,93.651q-.079-.043-.161-.08a41.821,41.821,0,0,0-4.44-1.91,24.325,24.325,0,0,0,4.734-13.592,10.038,10.038,0,0,0,.032-19.637c-.276-16.792-7.531-34.345-27.21-34.345H36.006a2.122,2.122,0,0,0-2.113,1.924c-.045.485-1.024,11.934,5.607,19.211.052.057.112.1.164.161a27.044,27.044,0,0,0-3.885,13.042,10.038,10.038,0,0,0,.007,19.637A24.326,24.326,0,0,0,40.52,91.654a41.835,41.835,0,0,0-4.437,1.909q-.087.038-.17.084a42.416,42.416,0,0,0-23.242,37.745V144.6a2.121,2.121,0,1,0,4.243,0V131.392A38.147,38.147,0,0,1,36.661,98.07l15.345,13.248a2.121,2.121,0,0,0,2.93-.15l3.221-3.415,2.592,5.182L54.7,144.193a2.121,2.121,0,0,0,1.68,2.486,2.159,2.159,0,0,0,.4.039A2.123,2.123,0,0,0,58.867,145l4.1-21.2,4.1,21.2a2.122,2.122,0,1,0,4.166-.806l-6.048-31.258,2.59-5.181L71,111.168a2.121,2.121,0,0,0,2.93.15L89.27,98.07a38.148,38.148,0,0,1,19.749,33.321V144.6a2.121,2.121,0,1,0,4.243,0V131.392A42.418,42.418,0,0,0,90.012,93.651Zm3.854-25.4a5.8,5.8,0,0,1-3.675,5.383V62.863A5.8,5.8,0,0,1,93.865,68.246Zm-55.8-39.917h24.9c18.061,0,22.011,17.07,22.8,26.733l-.807-.8A25.941,25.941,0,0,0,66.6,46.714H53.885c-4.824,0-8.606-1.455-11.234-4.335C38.711,38.071,38.107,31.544,38.066,28.329Zm-6,39.917a5.8,5.8,0,0,1,3.677-5.383V73.629A5.8,5.8,0,0,1,32.066,68.246Zm7.919-8.809A22.868,22.868,0,0,1,42.973,48.1a20.132,20.132,0,0,0,10.91,2.857H66.6a21.729,21.729,0,0,1,15.378,6.323l3.974,3.931V77.186A20.277,20.277,0,0,1,65.692,97.443H60.237A20.277,20.277,0,0,1,39.985,77.186Zm13.256,47.34L40.863,96.092c.9-.364,1.818-.68,2.748-.97a24.379,24.379,0,0,0,14.539,6.455Zm9.725,1.107-1.712-3.418,1.709-1.818,1.71,1.818Zm9.723-1.107-4.908-5.2a24.379,24.379,0,0,0,14.546-6.455c.933.291,1.85.606,2.748.97Z" transform="translate(-12.671 -13.985)" fill="#cdaa6a"/>
      <path id="Path_56009" data-name="Path 56009" d="M35.416,122.549a2.121,2.121,0,0,0-2.121,2.121v18.613a2.121,2.121,0,1,0,4.243,0V124.67a2.121,2.121,0,0,0-2.121-2.121Zm59.847,0a2.121,2.121,0,0,0-2.121,2.121v18.613a2.121,2.121,0,1,0,4.243,0V124.67a2.121,2.121,0,0,0-2.121-2.121ZM57.034,80.371a8.3,8.3,0,1,0,16.608,0,2.122,2.122,0,0,0-4.244,0,4.062,4.062,0,0,1-8.122,0,2.121,2.121,0,1,0-4.243,0ZM55.487,66.689a3.6,3.6,0,1,0-3.6-3.6A3.6,3.6,0,0,0,55.487,66.689Zm19.706,0a3.6,3.6,0,1,0-3.6-3.6A3.6,3.6,0,0,0,75.193,66.689Zm70.464-54.018H98.36a2.121,2.121,0,0,0-2.121,2.121V46a2.121,2.121,0,0,0,2.121,2.121h5.981v6.3a2.121,2.121,0,0,0,3.617,1.506l7.809-7.809h29.89A2.121,2.121,0,0,0,147.778,46v-31.2a2.121,2.121,0,0,0-2.121-2.121Zm-2.121,31.2H114.893a2.121,2.121,0,0,0-1.5.622l-4.81,4.807V46a2.121,2.121,0,0,0-2.121-2.121h-5.981V16.914h43.054Z" transform="translate(-15.045 -12.671)" fill="#cdaa6a"/>
      <path id="Path_56010" data-name="Path 56010" d="M121.947,34.98a3.6,3.6,0,1,0-3.6-3.6,3.6,3.6,0,0,0,3.6,3.6Zm19.706,0a3.6,3.6,0,1,0-3.6-3.6,3.6,3.6,0,0,0,3.6,3.6Zm-9.854,0a3.6,3.6,0,1,0-3.6-3.6,3.6,3.6,0,0,0,3.6,3.6Z" transform="translate(-24.836 -14.411)" fill="#cdaa6a"/>
    </g>
  </g>
</svg>
