<svg xmlns="http://www.w3.org/2000/svg" xmlns:xlink="http://www.w3.org/1999/xlink" width="144" height="144" viewBox="0 0 144 144">
  <defs>
    <clipPath id="clip-path">
      <circle id="Ellipse_93" data-name="Ellipse 93" cx="72" cy="72" r="72" transform="translate(1124 1778)" fill="#fff" stroke="#707070" stroke-width="1"/>
    </clipPath>
  </defs>
  <g id="Mask_Group_6" data-name="Mask Group 6" transform="translate(-1124 -1778)" clip-path="url(#clip-path)">
    <g id="tax-advice_1_" data-name="tax-advice (1)" transform="translate(1151.035 1794.772)">
      <path id="Path_11523" data-name="Path 11523" d="M13.712,98.418a1.067,1.067,0,0,1-.822-.411,1.558,1.558,0,0,1-.411-.822c0-12.739,5.959-15,10.89-16.643h.205c3.9-1.438,6.78-2.671,7.191-8.63a22.212,22.212,0,0,1-4.52-9.657,5.474,5.474,0,0,1-4.726-4.315A4.939,4.939,0,0,1,24.191,52.6a17.974,17.974,0,0,1,2.26-17.876.2.2,0,0,1,.205-.205,12.1,12.1,0,0,1,8.219-3.287,11.066,11.066,0,0,1,6.575,2.26c1.849.205,8.424,1.438,11.506,6.575,2.26,3.493,2.26,8.219,0,13.766,2.055,1.233,3.082,3.082,2.671,5.137-.205,2.26-1.849,3.9-4.315,4.52a24.568,24.568,0,0,1-3.9,8.424c.205,5.959,3.287,7.191,6.986,8.63h.411c4.726,1.644,10.684,3.9,10.684,16.643a1.184,1.184,0,0,1-1.233,1.233Zm69.037-33.08a.755.755,0,0,1-.616-.205,1.377,1.377,0,0,1-.616-1.644l8.835-15.2a1.2,1.2,0,1,1,2.055,1.233l-8.63,15.2A1.13,1.13,0,0,1,82.749,65.338ZM80.9,56.914a7.3,7.3,0,0,1-2.055-.411A4.095,4.095,0,0,1,80.9,48.9a3.471,3.471,0,0,1,2.055.616,4.166,4.166,0,0,1,1.438,5.548A4.037,4.037,0,0,1,80.9,56.914Zm0-5.548a1.387,1.387,0,0,0-1.233.822,1.424,1.424,0,0,0,1.233,2.26,1.51,1.51,0,0,0,.822-2.877C81.516,51.572,81.105,51.367,80.9,51.367ZM93.228,64.106a3.471,3.471,0,0,1-2.055-.616,3.8,3.8,0,0,1-1.438-5.342,3.977,3.977,0,0,1,3.493-2.055,6,6,0,0,1,1.849.411,4.149,4.149,0,0,1,1.644,5.548A4.238,4.238,0,0,1,93.228,64.106Zm0-5.548a1.551,1.551,0,0,0-1.438.822,1.467,1.467,0,0,0,.616,2.055c.205,0,.411.205.822.205a1.689,1.689,0,0,0,1.233-.822,1.424,1.424,0,0,0-.616-2.055A.755.755,0,0,0,93.228,58.558ZM87.064,74.379h-.411v-.205h-.205l-2.877-1.438V83.008h0v.205h-.205v.205h0v.205H83.16v.205h-.205l-.205.205H79.667l7.4,7.4,1.849-2.055h0l5.342-5.342H91.79A1.326,1.326,0,0,1,90.557,82.8V72.735L87.68,74.173h-.205v.205h-.411Zm-5.959-2.055-2.466-.205c-.205,0-.411-.205-.616-.205h0v-.205h-.205V71.5h0l-2.26-3.493-2.877-1.644-.616-.616h-.205v-.205h-.205v-.205h-.205v-.205h0v-.205h0l-.205-4.109h0l-1.849-3.7h0v-.205h-.205v-.205h0V56.5h0V56.3h0v-.205h.205v-.205h0l1.849-3.7V50.134l.205-2.055h0v-.205h0v-.205h.205v-.205h.205v-.205h.205L75.558,45h0l2.26-3.493h0V41.3h.205v-.205h.205v-.205h.411l4.109-.205h0l3.7-1.849h.205v-.205h.616l.205.205h.205l1.027.411V19.93H68.572A1.326,1.326,0,0,1,67.339,18.7V2.466H5.494A2.5,2.5,0,0,0,3.028,4.931v95.336a2.5,2.5,0,0,0,2.466,2.466H86.242a2.5,2.5,0,0,0,2.466-2.466V93.282l-.822.616h0V94.1H87.68a.2.2,0,0,1-.205.205H86.447V94.1h-.205V93.9h0L75.969,83.625h-.205v-.205h-.205v-.205h0v-.205h0V82.8h0V82.6h0v-.205h0a1.387,1.387,0,0,1,1.233-.822h4.315ZM91.173,40.682h.205l4.109.205c.411,0,.616.205.822.616L98.57,45l3.493,2.26c.411.205.616.411.616.822l.205,4.109,1.849,3.7a1.31,1.31,0,0,1,0,1.233l-1.849,3.7-.205,4.109c0,.411-.205.616-.616.822l-3.493,2.26L96.31,71.5c-.205.411-.411.616-.822.616l-2.466.205V81.57h4.315c.411,0,1.027.411,1.027.822.205.411.205,1.027-.205,1.233l-6.986,7.191v9.451a5,5,0,0,1-4.931,4.931H5.494a5,5,0,0,1-4.931-4.931V4.931A5,5,0,0,1,5.494,0H69.188V.205h.205L90.557,17.67l.411.411h0v.205h0v.205h.205V18.7h0Zm.616,29.176,2.877-.205,2.055-3.082c0-.205.205-.205.411-.411l3.082-2.055.205-3.7a.755.755,0,0,1,.205-.616l1.644-3.287-1.644-3.287a.755.755,0,0,1-.205-.616l-.205-3.7-3.082-2.055a.442.442,0,0,1-.411-.411l-2.055-3.082-3.7-.205a.755.755,0,0,1-.616-.205l-1.027-.411h0L87.064,41.3l-3.287,1.644h-.205v.205H83.16l-3.493.205h-.205l-2.055,3.082h0v.205H77.2v.205H77L73.914,48.9h0l-.205,3.7h0V52.8h0v.205H73.5v.205h0L71.859,56.5h0L73.5,59.791h0V60h.205V60.2h0v2.055l.205,1.849L77,66.16H77.2v.205h.205v.205h0l2.055,3.082,2.877.205h1.233v.205h.205l3.287,1.644,3.287-1.644h.205v-.205H91.79ZM26.451,12.533H21.726V24.245a1.184,1.184,0,0,1-1.233,1.233,1.326,1.326,0,0,1-1.233-1.233V12.533H14.534A1.184,1.184,0,0,1,13.3,11.3a1.326,1.326,0,0,1,1.233-1.233H26.451A1.184,1.184,0,0,1,27.684,11.3,1.09,1.09,0,0,1,26.451,12.533ZM38.779,25.478a1.326,1.326,0,0,1-1.233-1.233V19.108h-4.52v5.137a1.326,1.326,0,0,1-1.233,1.233,1.184,1.184,0,0,1-1.233-1.233V17.876h0V14.794a4.726,4.726,0,1,1,9.451,0v3.082h0v6.369A1.326,1.326,0,0,1,38.779,25.478Zm-1.233-8.835V14.794a2.26,2.26,0,0,0-4.52,0v1.849Zm18.7,8.835c-.411,0-.616-.205-1.027-.411l-4.109-5.342-4.315,5.342a1.569,1.569,0,0,1-1.027.411.755.755,0,0,1-.616-.205,1.3,1.3,0,0,1-.205-1.849l4.52-5.548-4.52-5.753a1.171,1.171,0,1,1,1.849-1.438l4.315,5.137,4.109-5.137a1.32,1.32,0,0,1,1.849-.205,1.273,1.273,0,0,1,.205,1.644l-4.726,5.753,4.726,5.548a1.53,1.53,0,0,1-.205,1.849A1.235,1.235,0,0,1,56.244,25.478ZM69.8,17.465H86.447L69.8,3.9ZM38.985,85.679a17.044,17.044,0,0,1-11.1-4.315,12.113,12.113,0,0,1-1.644.822,18.2,18.2,0,0,0,12.739,5.137,18.7,18.7,0,0,0,12.944-5.137,4.13,4.13,0,0,1-1.644-.822A17.58,17.58,0,0,1,38.985,85.679Zm-9.041-5.753a14.074,14.074,0,0,0,18.081,0,10.155,10.155,0,0,1-2.877-5.753,9.909,9.909,0,0,1-6.164,2.26h0a9.909,9.909,0,0,1-6.164-2.26A9.045,9.045,0,0,1,29.944,79.926Zm9.041,9.862a21.351,21.351,0,0,1-15.41-6.78c-4.315,1.644-8.219,3.287-8.63,12.944H63.024c-.205-9.657-4.315-11.3-8.63-12.944A20.674,20.674,0,0,1,38.985,89.789ZM26.862,53.216a1.13,1.13,0,0,1-.616,1.027c-2.055.822-2.466,2.26-2.26,3.287s1.027,2.26,3.287,2.26a1.3,1.3,0,0,1,1.233,1.027,23.1,23.1,0,0,0,4.315,9.862h0c1.849,2.055,3.9,3.287,6.164,3.287h0c4.52,0,8.424-4.52,10.068-11.917.205-.616.616-.822,1.233-1.027,2.055-.205,2.877-1.233,2.877-2.26a2.988,2.988,0,0,0-2.055-3.287H50.7V55.27h-.205v-.205h0a.755.755,0,0,1-.205-.616c0-.411-.205-5.342-5.959-8.219a11.286,11.286,0,0,1-9.041,4.931,13.914,13.914,0,0,1-6.575-1.849A7.694,7.694,0,0,0,26.862,53.216ZM43.71,43.559h.616a13.985,13.985,0,0,1,7.4,6.575c.822-3.493.616-6.575-.822-8.835-2.877-4.726-9.862-5.342-9.862-5.342-.411,0-.616,0-.822-.205A7.964,7.964,0,0,0,34.875,33.7,11.92,11.92,0,0,0,28.3,36.162a16.885,16.885,0,0,0-2.671,13.15,10.5,10.5,0,0,1,2.055-2.466,1.266,1.266,0,0,1,1.438-.205A13.625,13.625,0,0,0,35.286,48.7c4.931,0,7.4-4.52,7.4-4.52A1.13,1.13,0,0,1,43.71,43.559Z" fill="#925f00" fill-rule="evenodd"/>
      <path id="Path_11524" data-name="Path 11524" d="M44.4,61.124c4.931,0,7.4-4.52,7.4-4.52a1.13,1.13,0,0,1,1.027-.616h.616a13.986,13.986,0,0,1,7.4,6.575c.822-3.493.616-6.575-.822-8.835-2.877-4.726-9.862-5.342-9.862-5.342-.411,0-.616,0-.822-.205a7.964,7.964,0,0,0-5.342-2.055,11.92,11.92,0,0,0-6.575,2.466,16.885,16.885,0,0,0-2.671,13.15A10.5,10.5,0,0,1,36.8,59.275a1.266,1.266,0,0,1,1.438-.205A13.625,13.625,0,0,0,44.4,61.124Z" transform="translate(-9.114 -12.429)" fill="#fff" fill-rule="evenodd"/>
      <path id="Path_11525" data-name="Path 11525" d="M52.928,63.281c-3.493,4.726-9.246,6.369-15.615,3.082a7.694,7.694,0,0,0-1.849,3.9,1.13,1.13,0,0,1-.616,1.027c-3.493,1.233-3.082,5.548,1.027,5.548a1.3,1.3,0,0,1,1.233,1.027,20.861,20.861,0,0,0,4.315,9.862,8.821,8.821,0,0,0,6.164,3.287c4.52,0,8.424-4.52,10.068-11.917.205-.616.616-.822,1.233-1.027,3.7-.205,3.9-4.315.822-5.548a1.049,1.049,0,0,1-.822-1.027C58.887,71.089,58.681,66.158,52.928,63.281Z" transform="translate(-8.602 -17.051)" fill="#fff" fill-rule="evenodd"/>
      <path id="Path_11526" data-name="Path 11526" d="M53.866,40.975c2.26,3.493,2.26,8.219,0,13.766,4.315,2.671,3.493,8.424-1.644,9.657a24.568,24.568,0,0,1-3.9,8.424c.205,5.959,3.287,7.191,6.986,8.63,4.931,1.644,11.1,3.7,11.1,16.643a1.184,1.184,0,0,1-1.233,1.233H14.622A1.326,1.326,0,0,1,13.389,98.1c0-12.944,6.164-15,11.1-16.643,3.9-1.438,6.78-2.671,7.191-8.63a22.212,22.212,0,0,1-4.52-9.657c-5.548-.822-6.369-7.191-2.055-9.657a17.974,17.974,0,0,1,2.26-17.876,12.751,12.751,0,0,1,8.424-3.493A11.066,11.066,0,0,1,42.36,34.4C44.209,34.606,50.784,35.839,53.866,40.975ZM70.3,56.8l1.849-3.7.205-4.109h0v-.205h0v-.205h.205v-.205h0l.205-.205h.205l3.493-2.26,2.26-3.7h0L78.933,42h.205l.205-.205c.616-.205,3.9,0,4.315-.205l3.7-1.849h.205v-.205h.616l.205.205h0l1.233.411V20.84H69.481a1.326,1.326,0,0,1-1.233-1.233V3.375H6.4A2.5,2.5,0,0,0,3.938,5.841v95.336A2.5,2.5,0,0,0,6.4,103.643H87.151a2.5,2.5,0,0,0,2.466-2.466V94.191l-.822.616a.962.962,0,0,1-1.644,0L76.878,84.534A1.164,1.164,0,0,1,77.7,82.48h4.315V73.234l-2.466-.205c-.205,0-.411-.205-.616-.205h0v-.205h-.205a35.739,35.739,0,0,1-2.26-3.7l-2.877-1.644-.822-.616h0l-.205-.205h0v-.205h-.205v-.205h0v-.205l-.205-4.109L70.1,57.618C70.1,57,70.1,57.207,70.3,56.8ZM40.921,25.154a1.233,1.233,0,1,1-2.466,0V20.018h-4.52v5.137a1.233,1.233,0,1,1-2.466,0V15.7a4.726,4.726,0,1,1,9.451,0ZM27.361,13.443H22.635V25.154a1.233,1.233,0,1,1-2.466,0V13.443H15.444a1.233,1.233,0,0,1,0-2.466H27.361A1.233,1.233,0,0,1,27.361,13.443ZM57.153,26.387c-.411,0-.616-.205-1.027-.411l-4.109-5.342L47.7,25.976a1.273,1.273,0,0,1-1.644.205,1.3,1.3,0,0,1-.205-1.849l4.52-5.548-4.52-5.753A1.175,1.175,0,1,1,47.7,11.594l4.315,5.137,4.109-5.137c1.027-1.438,3.082.205,2.055,1.438l-4.726,5.753,4.726,5.548A1.3,1.3,0,0,1,57.153,26.387Z" transform="translate(-0.909 -0.909)" fill="#cdaa6a" fill-rule="evenodd"/>
      <path id="Path_11527" data-name="Path 11527" d="M45,21.266h4.52V19.416a2.26,2.26,0,1,0-4.52,0Z" transform="translate(-11.974 -4.623)" fill="#cdaa6a" fill-rule="evenodd"/>
      <path id="Path_11528" data-name="Path 11528" d="M95.344,5.344V18.9h16.643Z" transform="translate(-25.539 -1.44)" fill="#d7d7d7" fill-rule="evenodd"/>
      <path id="Path_11529" data-name="Path 11529" d="M112.95,89.406l-3.082-1.438V98.446h-.205v.205h0v.205h-.205v.205h-.205l-.205.205h-3.082l7.4,7.4,7.191-7.4h-2.466a1.326,1.326,0,0,1-1.233-1.233V87.968l-3.082,1.438-.205.205h-.616ZM110.073,85.3l3.287,1.644,3.287-1.644h.205v-.205h1.233l2.877-.205a25.668,25.668,0,0,1,2.466-3.493l3.082-2.055a30.654,30.654,0,0,1,.411-4.315l1.644-3.287a16.8,16.8,0,0,1-1.849-3.9l-.205-3.7a25.667,25.667,0,0,1-3.493-2.466l-2.055-3.082a25.646,25.646,0,0,1-4.315-.411l-3.287-1.644-3.493,1.644h0v.205h-.205l-3.9.205L103.7,61.873h0l-.411.205-3.082,2.055-.205,4.109-.205.205-1.644,3.287,1.849,3.7.205,3.9L103.5,81.6l2.26,3.287,3.9.205h0l.205.205h.205Zm-1.027-4.726a1.305,1.305,0,0,1-1.233-1.849l8.835-15.2A1.2,1.2,0,1,1,118.7,64.75l-8.63,15.2A1.13,1.13,0,0,1,109.046,80.571ZM107.2,72.147a4.013,4.013,0,0,1-3.493-5.959,4.275,4.275,0,0,1,5.548-1.438A3.971,3.971,0,0,1,107.2,72.147Zm12.328,7.191a3.947,3.947,0,0,1-3.493-5.959,3.864,3.864,0,0,1,5.342-1.644A4.068,4.068,0,0,1,119.525,79.338Z" transform="translate(-26.297 -15.233)" fill="#fff" fill-rule="evenodd"/>
      <path id="Path_11530" data-name="Path 11530" d="M98.533,77.5a1.541,1.541,0,1,0,0,3.082C100.382,80.586,100.382,77.5,98.533,77.5ZM86.2,73.394a1.541,1.541,0,0,0,0-3.082A1.541,1.541,0,1,0,86.2,73.394ZM59.7,101.954a20.674,20.674,0,0,1-15.41,6.78,21.351,21.351,0,0,1-15.41-6.78c-4.315,1.644-8.219,3.287-8.63,12.944H68.329C68.124,105.242,64.014,103.6,59.7,101.954Z" transform="translate(-5.305 -18.946)" fill="#fff" fill-rule="evenodd"/>
      <path id="Path_11531" data-name="Path 11531" d="M35.719,112.2a18.757,18.757,0,0,0,25.683,0,4.13,4.13,0,0,1-1.644-.822,17.58,17.58,0,0,1-11.3,4.315,17.044,17.044,0,0,1-11.1-4.315A12.114,12.114,0,0,1,35.719,112.2Z" transform="translate(-9.473 -30.01)" fill="#d7d7d7" fill-rule="evenodd"/>
      <path id="Path_11532" data-name="Path 11532" d="M40.781,107.284a14.245,14.245,0,0,0,18.081,0,10.155,10.155,0,0,1-2.877-5.753,9.374,9.374,0,0,1-12.328,0A9.045,9.045,0,0,1,40.781,107.284Z" transform="translate(-10.837 -27.358)" fill="#d7d7d7" fill-rule="evenodd"/>
    </g>
  </g>
</svg>
