<svg xmlns="http://www.w3.org/2000/svg" xmlns:xlink="http://www.w3.org/1999/xlink" width="144" height="144" viewBox="0 0 144 144">
  <defs>
    <clipPath id="clip-path">
      <circle id="Ellipse_94" data-name="Ellipse 94" cx="72" cy="72" r="72" transform="translate(328 1778)" fill="#fff" stroke="#707070" stroke-width="1"/>
    </clipPath>
  </defs>
  <g id="Mask_Group_7" data-name="Mask Group 7" transform="translate(-328 -1778)" clip-path="url(#clip-path)">
    <g id="tax-law" transform="translate(340.259 1790.646)">
      <path id="Path_11533" data-name="Path 11533" d="M27.789,77.223a1.606,1.606,0,0,0,.531,1.238,5.363,5.363,0,0,0,1.769.884V75.1a3.143,3.143,0,0,0-1.769.707A2.008,2.008,0,0,0,27.789,77.223Zm3.714,5.66V87.3a2.7,2.7,0,0,0,1.769-.707,1.609,1.609,0,0,0,.707-1.415,2.008,2.008,0,0,0-.531-1.415C33.273,83.414,32.565,83.06,31.5,82.883Z" transform="translate(-5.015 -16.365)" fill="#cdaa6a"/>
      <path id="Path_11534" data-name="Path 11534" d="M25.6,53.177A19.633,19.633,0,1,0,45.237,72.81,19.7,19.7,0,0,0,25.6,53.177Zm4.952,26.531a5.827,5.827,0,0,1-3.891,1.415v1.769H25.074V81.123A9.827,9.827,0,0,1,19.06,78.47l1.769-2.122a8.046,8.046,0,0,0,4.245,2.122V73.695a9.694,9.694,0,0,1-4.068-1.769,3.784,3.784,0,0,1-1.238-3.184,4.529,4.529,0,0,1,1.415-3.361,5.827,5.827,0,0,1,3.891-1.415V62.728h1.592v1.238a9.863,9.863,0,0,1,4.952,1.769l-1.592,2.3a8.77,8.77,0,0,0-3.537-1.415v4.6a9.694,9.694,0,0,1,4.068,1.769,3.784,3.784,0,0,1,1.238,3.184,3.735,3.735,0,0,1-1.238,3.537Zm81.362-42.273H74.245a1.585,1.585,0,0,0-1.592,1.592V80.593a1.585,1.585,0,0,0,1.592,1.592h37.674a1.585,1.585,0,0,0,1.592-1.592V39.027a1.585,1.585,0,0,0-1.592-1.592ZM84.5,75.817H82.911a1.592,1.592,0,0,1,0-3.184H84.5a1.592,1.592,0,0,1,0,3.184Zm0-7.782H82.911a1.592,1.592,0,0,1,0-3.184H84.5a1.592,1.592,0,0,1,0,3.184Zm0-7.782H82.911a1.592,1.592,0,1,1,0-3.184H84.5a1.592,1.592,0,0,1,0,3.184Zm9.374,15.565H92.286a1.592,1.592,0,1,1,0-3.184h1.592a1.592,1.592,0,0,1,0,3.184Zm0-7.782H92.286a1.592,1.592,0,1,1,0-3.184h1.592a1.592,1.592,0,0,1,0,3.184Zm0-7.782H92.286a1.592,1.592,0,1,1,0-3.184h1.592a1.592,1.592,0,0,1,0,3.184Zm9.374,15.565H101.66a1.592,1.592,0,0,1,0-3.184h1.592a1.592,1.592,0,0,1,0,3.184Zm0-7.782H101.66a1.592,1.592,0,0,1,0-3.184h1.592a1.592,1.592,0,0,1,0,3.184Zm0-7.782H101.66a1.592,1.592,0,0,1,0-3.184h1.592a1.592,1.592,0,1,1,0,3.184Zm3.891-7.959a1.585,1.585,0,0,1-1.592,1.592H80.612a1.585,1.585,0,0,1-1.592-1.592V45.218a1.585,1.585,0,0,1,1.592-1.592h25.116a1.585,1.585,0,0,1,1.592,1.592v7.075Z" transform="translate(0 -7.708)" fill="#cdaa6a"/>
      <path id="Path_11535" data-name="Path 11535" d="M85.266,49.608H107.2V53.5H85.266ZM81.375,116.82H19.292V120a5.131,5.131,0,0,0,5.129,5.129H82.966A8.426,8.426,0,0,1,81.375,120V116.82Z" transform="translate(-3.062 -10.505)" fill="#cdaa6a"/>
      <path id="Path_11536" data-name="Path 11536" d="M31.694,9.387V42.109a23.173,23.173,0,0,1,0,46.341v14.5h54.3a1.772,1.772,0,0,1,1.769,1.769v4.952a5.129,5.129,0,0,0,10.259,0V78.014H80.157a5.133,5.133,0,0,1-5.129-5.129V31.32a5.133,5.133,0,0,1,5.129-5.129H98.021V9.034a9.16,9.16,0,0,1,1.592-4.952H37.177a5.253,5.253,0,0,0-5.483,5.306Zm57.661,82.6a1.769,1.769,0,1,1,0,3.537H51.327a1.769,1.769,0,1,1,0-3.537H89.355ZM62.647,61.742h6.9a1.769,1.769,0,1,1,0,3.537h-6.9a1.671,1.671,0,0,1-1.769-1.769,1.772,1.772,0,0,1,1.769-1.769ZM60.878,48.3a1.671,1.671,0,0,1,1.769-1.769h6.9a1.769,1.769,0,0,1,0,3.537h-6.9A1.9,1.9,0,0,1,60.878,48.3Zm8.667,28.477a1.769,1.769,0,0,1,0,3.537H59.109a1.769,1.769,0,1,1,0-3.537ZM47.082,16.109H85.64a1.671,1.671,0,0,1,1.769,1.769,1.671,1.671,0,0,1-1.769,1.769H47.082a1.671,1.671,0,0,1-1.769-1.769A1.671,1.671,0,0,1,47.082,16.109ZM46.374,31.32h23.17a1.769,1.769,0,0,1,0,3.537H46.374a1.769,1.769,0,1,1,0-3.537ZM106.688,3.9a5.133,5.133,0,0,0-5.129,5.129v6.721h10.082V9.034A4.878,4.878,0,0,0,106.688,3.9Z" transform="translate(-5.913)" fill="#cdaa6a"/>
    </g>
  </g>
</svg>
