<svg xmlns="http://www.w3.org/2000/svg" xmlns:xlink="http://www.w3.org/1999/xlink" width="144" height="144" viewBox="0 0 144 144">
  <defs>
    <clipPath id="clip-path">
      <circle id="Ellipse_96" data-name="Ellipse 96" cx="72" cy="72" r="72" transform="translate(1129 570)" fill="#fff" stroke="rgba(205,170,106,0.32)" stroke-width="4"/>
    </clipPath>
  </defs>
  <g id="Mask_Group_8" data-name="Mask Group 8" transform="translate(-1129 -570)" clip-path="url(#clip-path)">
    <g id="vision" transform="translate(1142.2 583.028)">
      <path id="Path_11537" data-name="Path 11537" d="M55.013,10.135a1.751,1.751,0,0,0,1.758-1.758V3.547a1.758,1.758,0,1,0-3.516,0V8.36A1.777,1.777,0,0,0,55.013,10.135ZM33.33,14.646a1.759,1.759,0,0,0,1.527.888,1.682,1.682,0,0,0,.87-.231,1.747,1.747,0,0,0,.639-2.4L33.951,8.715a1.754,1.754,0,0,0-3.037,1.758ZM20.952,27.024l-4.173-2.415a1.754,1.754,0,0,0-1.758,3.037l4.173,2.415a1.757,1.757,0,0,0,2.4-.657A1.716,1.716,0,0,0,20.952,27.024Zm-4.528,21.7a1.751,1.751,0,0,0-1.758-1.758H9.853a1.758,1.758,0,0,0,0,3.516h4.83A1.758,1.758,0,0,0,16.423,48.725Zm2.77,18.647L15.02,69.787a1.764,1.764,0,0,0,.888,3.285,1.682,1.682,0,0,0,.87-.231l4.173-2.415a1.762,1.762,0,0,0-1.758-3.054Zm75.83,2.415L90.85,67.372a1.754,1.754,0,0,0-1.758,3.037l4.173,2.415a1.757,1.757,0,0,0,2.4-.657A1.731,1.731,0,0,0,95.024,69.787ZM89.962,30.309a1.682,1.682,0,0,0,.87-.231l4.173-2.415a1.754,1.754,0,1,0-1.758-3.037l-4.173,2.415a1.747,1.747,0,0,0-.639,2.4A1.8,1.8,0,0,0,89.962,30.309ZM74.317,15.3a1.757,1.757,0,0,0,2.4-.657l2.415-4.173a1.754,1.754,0,1,0-3.037-1.758l-2.415,4.173A1.768,1.768,0,0,0,74.317,15.3Z" transform="translate(0)" fill="#c49f5c"/>
      <path id="Path_11538" data-name="Path 11538" d="M94.226,55.87a6.7,6.7,0,1,0,13.39,0,6.168,6.168,0,0,0-.444-2.273,2.878,2.878,0,1,1-3.96-3.942,6.606,6.606,0,0,0-1.953-.408h-.036a.676.676,0,0,0-.32-.053,6.587,6.587,0,0,0-1.314.124h-.018A6.764,6.764,0,0,0,94.226,55.87Z" transform="translate(-17.725 -9.755)" fill="#cdaa6a"/>
      <path id="Path_11539" data-name="Path 11539" d="M102.656,39.511Z" transform="translate(-19.46 -7.763)" fill="#c49f5c"/>
      <path id="Path_11540" data-name="Path 11540" d="M65.829,53.918S78.118,67.362,93.55,68.232a14.378,14.378,0,0,1,0-28.592C78.118,40.475,65.829,53.918,65.829,53.918ZM96.6,39.622a14.376,14.376,0,0,1,0,28.592c15.45-.852,27.739-14.314,27.739-14.314S112.037,40.475,96.6,39.622Z" transform="translate(-11.881 -7.786)" fill="#cdaa6a"/>
      <path id="Path_11541" data-name="Path 11541" d="M86.894,64.34h0ZM55.018,52.317l-2.149-2.362,2.167-2.362c.551-.6,12.822-13.852,28.876-15.361A32.793,32.793,0,1,0,34.666,75.51a35.983,35.983,0,0,1,8.311,14.74c.231-.018.444-.071.693-.071H73.717c.231,0,.444.053.675.071a35.753,35.753,0,0,1,8.293-14.687,32.461,32.461,0,0,0,5.328-7.743c-.391.018-.764.053-1.154.053C69.349,67.856,55.586,52.956,55.018,52.317Zm3.676,67.661a10.921,10.921,0,0,0,8.879-4.564H49.8A10.954,10.954,0,0,0,58.694,119.978Zm14.722-26.3H43.67a4.547,4.547,0,0,0-4.546,4.546v.036a2.9,2.9,0,0,0,2.966,2.753H75.3a2.874,2.874,0,0,0,2.948-2.717c0-.213-.018-.444-.036-.675A4.747,4.747,0,0,0,73.416,93.677Zm1.669,10.868h-32.8a3.1,3.1,0,0,0-3.143,3.339,4.3,4.3,0,0,0,.178.8,4.737,4.737,0,0,0,4.564,3.214H73.433a4.761,4.761,0,0,0,4.795-3.978.107.107,0,0,1,.018-.071A3.1,3.1,0,0,0,75.085,104.545Z" transform="translate(-3.663 -3.822)" fill="#c49f5c"/>
    </g>
  </g>
</svg>
