<svg xmlns="http://www.w3.org/2000/svg" xmlns:xlink="http://www.w3.org/1999/xlink" width="144" height="144" viewBox="0 0 144 144">
  <defs>
    <clipPath id="clip-path">
      <circle id="Ellipse_98" data-name="Ellipse 98" cx="72" cy="72" r="72" transform="translate(329 570)" fill="#fff" stroke="#707070" stroke-width="1"/>
    </clipPath>
  </defs>
  <g id="Mask_Group_10" data-name="Mask Group 10" transform="translate(-329 -570)" clip-path="url(#clip-path)">
    <path id="objectives" d="M100.911,94.176a57.1,57.1,0,1,0-23.9,16.748l11.742,16.768a1.013,1.013,0,0,0,.831.435.783.783,0,0,0,.135-.01,1.015,1.015,0,0,0,.824-.664L94.8,115.635l4.467-3.127,12.559.048h.005a1.02,1.02,0,0,0,.834-1.6ZM28.374,49.571A26.011,26.011,0,0,0,41.413,36.844c4.106,5.913,9.505,8.852,16.415,8.931C52.652,51.848,50.976,59.31,52.837,68c-6.19-.75-11.221,1.139-14.991,5.628C36.3,68.6,32.726,65.215,27.2,63.538,30.1,59.333,30.494,54.645,28.374,49.571ZM57.223,64.382a7.171,7.171,0,0,1-2.995-.656,21.635,21.635,0,0,1,2.979-13.664h.015a7.16,7.16,0,1,1,0,14.32Zm23.8-7.159A23.8,23.8,0,0,0,44.275,37.251a25.12,25.12,0,0,1-2.161-3.061,1.008,1.008,0,0,0-.948-.488,1.021,1.021,0,0,0-.864.63A23.968,23.968,0,0,1,26.637,48.1a1.017,1.017,0,0,0-.531,1.378c2.5,5.25,2.034,9.828-1.416,14a1.016,1.016,0,0,0,.552,1.637c6.409,1.5,10.049,5.11,11.125,11.018a1.018,1.018,0,0,0,.791.814.982.982,0,0,0,.208.02,1.019,1.019,0,0,0,.844-.447A17.973,17.973,0,0,1,40.3,73.95a23.807,23.807,0,0,0,27.044,4.815l10.029,14.32a41.174,41.174,0,1,1,6.658-4.668L74,74.1A23.879,23.879,0,0,0,81.02,57.223Zm8.275,67.7L77.54,108.13,81.02,98.3l11.793,16.842Zm4.9-11.348L60.7,65.731A9.227,9.227,0,0,0,64.028,63.4l33.5,47.844Zm5.275-3.094L87.681,93.632l10.431.094,11.758,16.789Z" transform="translate(343.777 585.873)" fill="#cdaa6a"/>
  </g>
</svg>
