<svg xmlns="http://www.w3.org/2000/svg" width="39.404" height="39.404" viewBox="0 0 39.404 39.404">
  <g id="Group_176809" data-name="Group 176809" transform="translate(-7.58 -7.58)">
    <path id="Path_56067" data-name="Path 56067" d="M32.462,46.984H22.1A14.522,14.522,0,0,1,7.58,32.462V22.1a1.614,1.614,0,0,1,3.227,0V32.462a11.3,11.3,0,0,0,11.3,11.3H32.462a11.3,11.3,0,0,0,11.3-11.3V22.1a11.3,11.3,0,0,0-11.3-11.3H22.1A11.3,11.3,0,0,0,12.8,15.7a1.614,1.614,0,1,1-2.655-1.831A14.522,14.522,0,0,1,22.1,7.58H32.462A14.522,14.522,0,0,1,46.984,22.1V32.462A14.522,14.522,0,0,1,32.462,46.984Z" transform="translate(0)" fill="red"/>
    <path id="Path_56068" data-name="Path 56068" d="M24.455,37.642a1.614,1.614,0,0,1-1.138-2.751L34.871,23.337a1.614,1.614,0,0,1,2.275,2.275L25.593,37.166a1.614,1.614,0,0,1-1.138.476Z" transform="translate(-2.95 -2.969)" fill="red"/>
    <path id="Path_56069" data-name="Path 56069" d="M36.028,37.642a1.614,1.614,0,0,1-1.138-.476l-5.777-5.777a1.614,1.614,0,0,1,2.275-2.275l5.777,5.777a1.614,1.614,0,0,1-1.138,2.751ZM26.556,28.17a1.614,1.614,0,0,1-1.146-.476l-2.073-2.082a1.614,1.614,0,0,1,2.275-2.275l2.082,2.073a1.614,1.614,0,0,1-1.138,2.759Z" transform="translate(-2.969 -2.969)" fill="red"/>
  </g>
</svg>
